<svg xmlns="http://www.w3.org/2000/svg" xmlns:xlink="http://www.w3.org/1999/xlink" width="269" height="83" viewBox="0 0 269 83">
  <defs>
    <clipPath id="clip-path">
      <rect id="Rectangle_13232" data-name="Rectangle 13232" width="269" height="83" fill="rgba(255,255,255,0.35)" stroke="#707070" stroke-width="1"/>
    </clipPath>
    <clipPath id="clip-path-2">
      <path id="Path_1134" data-name="Path 1134" d="M51.355,41.5H181.043v83H51.355Z" transform="translate(-51.355 -41.5)" fill="none" clip-rule="evenodd"/>
    </clipPath>
  </defs>
  <g id="Mask_Group_10" data-name="Mask Group 10" clip-path="url(#clip-path)">
    <g id="cdnlogo.com_apple-pay" transform="translate(69.656)" clip-path="url(#clip-path-2)">
      <path id="Path_1133" data-name="Path 1133" d="M90.03,66.4a7.562,7.562,0,0,0,1.785-5.476,7.689,7.689,0,0,0-5.051,2.6,7.136,7.136,0,0,0-1.814,5.307A6.35,6.35,0,0,0,90.03,66.4ZM95,79.153a7.778,7.778,0,0,1,3.711-6.54,8.034,8.034,0,0,0-6.273-3.393c-2.672-.264-5.219,1.574-6.569,1.574s-3.441-1.532-5.661-1.485a8.39,8.39,0,0,0-7.1,4.3c-3.017,5.261-.766,13.032,2.18,17.288,1.443,2.083,3.157,4.424,5.417,4.34,2.175-.085,2.991-1.407,5.62-1.407s3.365,1.4,5.656,1.364c2.338-.05,3.821-2.127,5.255-4.221A18.681,18.681,0,0,0,99.6,86.1,7.611,7.611,0,0,1,95,79.153ZM122.829,66.4a8.747,8.747,0,0,0-3.34-1.943,15.181,15.181,0,0,0-4.759-.669,30.968,30.968,0,0,0-3.5.182q-1.453.162-2.895.406l-.282.049V94.972h2.789V82.1a19.164,19.164,0,0,0,3.2.245,15.5,15.5,0,0,0,4.4-.6,9.818,9.818,0,0,0,3.524-1.838,8.891,8.891,0,0,0,2.353-3.059,9.869,9.869,0,0,0,.861-4.235,9.564,9.564,0,0,0-.617-3.541A8.1,8.1,0,0,0,122.829,66.4Zm-2.563,11.668a9.151,9.151,0,0,1-6.029,1.809c-.707,0-1.376-.031-1.99-.088a9.365,9.365,0,0,1-1.4-.235V66.563c.369-.068.825-.132,1.361-.189a23.418,23.418,0,0,1,2.435-.109,11.612,11.612,0,0,1,3.187.414,7.34,7.34,0,0,1,2.45,1.2,5.2,5.2,0,0,1,1.56,2.006,7.13,7.13,0,0,1,.553,2.917,6.535,6.535,0,0,1-2.125,5.267Zm21.583,14.044c-.031-.865-.043-1.733-.043-2.6V81.023a16.013,16.013,0,0,0-.3-3.054,7.744,7.744,0,0,0-1.155-2.842A6.466,6.466,0,0,0,138,73.039a8.086,8.086,0,0,0-3.836-.8,12.236,12.236,0,0,0-3.289.439,10.437,10.437,0,0,0-3.076,1.463l-.227.157.942,2.2.341-.23a9.262,9.262,0,0,1,5.089-1.56,5.194,5.194,0,0,1,2.753.626,4.169,4.169,0,0,1,1.506,1.549,5.9,5.9,0,0,1,.662,1.988,13.466,13.466,0,0,1,.156,1.919v.246c-4.134-.019-7.363.669-9.506,2.051a6.929,6.929,0,0,0-3.391,6.13,6.747,6.747,0,0,0,.4,2.263,5.844,5.844,0,0,0,1.215,2.019,5.984,5.984,0,0,0,2.07,1.425,7.25,7.25,0,0,0,2.9.543,8.116,8.116,0,0,0,4.382-1.2,8.409,8.409,0,0,0,1.52-1.191q.278-.28.531-.584h.107l.256,2.48h2.688l-.074-.4a17.046,17.046,0,0,1-.264-2.463Zm-2.832-4.35a4.817,4.817,0,0,1-.206,1.194,6.11,6.11,0,0,1-.75,1.492,5.732,5.732,0,0,1-2.92,2.2,6.829,6.829,0,0,1-2.236.341,4.421,4.421,0,0,1-1.47-.251A3.541,3.541,0,0,1,130.2,92a3.685,3.685,0,0,1-.868-1.257,4.707,4.707,0,0,1-.33-1.864,4.187,4.187,0,0,1,.953-2.873,6.258,6.258,0,0,1,2.487-1.686,12.759,12.759,0,0,1,3.359-.766,30.628,30.628,0,0,1,3.218-.14Zm21.761-15.031-5.2,14.149c-.325.854-.628,1.715-.9,2.554-.135.418-.263.814-.389,1.191h-.1q-.195-.619-.4-1.236c-.269-.83-.56-1.644-.857-2.421L147.36,72.731h-2.976L152.346,93.2a2.353,2.353,0,0,1,.24.811,3.1,3.1,0,0,1-.244.818,14.862,14.862,0,0,1-1.689,3.14,18.574,18.574,0,0,1-1.743,2.094,9.518,9.518,0,0,1-1.864,1.477,17.825,17.825,0,0,1-1.764.925l-.3.134.97,2.357.308-.114c.252-.1.726-.311,1.445-.662a11.008,11.008,0,0,0,2.388-1.693,12.326,12.326,0,0,0,2.009-2.263,27.8,27.8,0,0,0,1.753-2.934c.57-1.1,1.141-2.346,1.7-3.714s1.155-2.912,1.772-4.563l6.43-16.281Zm8.637-29.5h1.318c.361,0,.723.007,1.086.016a14.558,14.558,0,0,1,2.179.188,6.5,6.5,0,0,1,1.84.6,6.03,6.03,0,0,1,2.651,2.652,6.452,6.452,0,0,1,.6,1.84,14.41,14.41,0,0,1,.187,2.177c.01.36.015.721.017,1.086,0,.437,0,.879,0,1.318v59.778c0,.439,0,.878,0,1.323q0,.54-.017,1.081a14.749,14.749,0,0,1-.187,2.182,6.467,6.467,0,0,1-.6,1.835,6.081,6.081,0,0,1-2.654,2.654,6.484,6.484,0,0,1-1.836.6,14.9,14.9,0,0,1-2.173.187c-.363.009-.726.014-1.095.014-.437,0-.878,0-1.316,0H62.97c-.434,0-.868,0-1.307,0-.363,0-.726,0-1.081-.014a15.139,15.139,0,0,1-2.179-.187,6.409,6.409,0,0,1-1.842-.605,6.069,6.069,0,0,1-2.649-2.652,6.472,6.472,0,0,1-.6-1.84,14.494,14.494,0,0,1-.188-2.177q-.013-.541-.016-1.082V51.793c0-.361.007-.723.016-1.086a14.6,14.6,0,0,1,.188-2.181,6.41,6.41,0,0,1,.6-1.838,6.041,6.041,0,0,1,2.651-2.651,6.431,6.431,0,0,1,1.838-.6,14.49,14.49,0,0,1,2.181-.189c.361-.009.723-.014,1.082-.015l1.321,0H169.415m0-1.729H62.985l-1.33,0q-.56,0-1.12.017a16.441,16.441,0,0,0-2.438.215,8.268,8.268,0,0,0-2.319.764,7.828,7.828,0,0,0-3.406,3.408,8.2,8.2,0,0,0-.764,2.319,16.218,16.218,0,0,0-.216,2.438q-.013.558-.016,1.119l0,1.33v59.778l0,1.331q0,.56.017,1.119a16.17,16.17,0,0,0,.216,2.436,8.185,8.185,0,0,0,.762,2.319A7.761,7.761,0,0,0,55.78,123.5a8.218,8.218,0,0,0,2.317.764,16.5,16.5,0,0,0,2.438.214c.373.01.745.016,1.12.016.443,0,.887,0,1.33,0H169.415c.443,0,.887,0,1.33,0q.56,0,1.121-.016a16.54,16.54,0,0,0,2.438-.214,8.264,8.264,0,0,0,2.317-.764,7.753,7.753,0,0,0,3.408-3.408,8.147,8.147,0,0,0,.762-2.319,16.224,16.224,0,0,0,.215-2.436c.01-.373.015-.747.017-1.119,0-.444,0-.887,0-1.331V53.111c0-.444,0-.887,0-1.331q0-.56-.017-1.119a16.222,16.222,0,0,0-.215-2.438,8.181,8.181,0,0,0-.762-2.319,7.792,7.792,0,0,0-3.408-3.408,8.251,8.251,0,0,0-2.317-.764,16.5,16.5,0,0,0-2.438-.214c-.375-.011-.749-.014-1.121-.017Z" transform="translate(-51.355 -41.5)" fill="#ff940a" fill-rule="evenodd"/>
    </g>
  </g>
</svg>
