<svg xmlns="http://www.w3.org/2000/svg" xmlns:xlink="http://www.w3.org/1999/xlink" width="195" height="176" viewBox="0 0 195 176">
  <defs>
    <clipPath id="clip-path">
      <rect id="Rectangle_13229" data-name="Rectangle 13229" width="195" height="176" fill="rgba(255,255,255,0.35)" stroke="#707070" stroke-width="1"/>
    </clipPath>
  </defs>
  <g id="Mask_Group_9" data-name="Mask Group 9" clip-path="url(#clip-path)">
    <g id="cdnlogo.com_google-pay" transform="translate(-0.052)">
      <ellipse id="Ellipse_4" data-name="Ellipse 4" cx="97.5" cy="88" rx="97.5" ry="88" transform="translate(0 0)" fill="none"/>
      <path id="Path_1127" data-name="Path 1127" d="M70.959,175.522a104.975,104.975,0,0,1-51.29-13.144L84.983.426a104.162,104.162,0,0,1,32.96,9.964c47.2,23.372,64.484,76.851,38.588,119.461C139.4,158.049,106.591,175.557,70.959,175.522Z" transform="translate(26.541 0.477)" fill="none"/>
      <path id="Path_1128" data-name="Path 1128" d="M40.6,43.648a16.905,16.905,0,0,0-.5-4.407H17.659v8H30.833a10.469,10.469,0,0,1-4.883,7l-.047.264L33,59.468l.491.043A20.116,20.116,0,0,0,40.6,43.648" transform="translate(38.829 43.969)" fill="#ff940a"/>
      <path id="Path_1129" data-name="Path 1129" d="M29.918,60.412c6.45,0,11.871-1.918,15.828-5.225L38.209,49.91a15.255,15.255,0,0,1-8.282,2.157c-6.2-.034-11.673-3.648-13.6-8.967l-.283.026L8.669,48.274l-.094.239c4.042,7.3,12.306,11.908,21.343,11.9" transform="translate(26.57 48.293)" fill="#ff940a"/>
      <path id="Path_1130" data-name="Path 1130" d="M17.783,50.531a12.048,12.048,0,0,1-.793-4.27,12.768,12.768,0,0,1,.774-4.27l-.009-.281-7.47-5.234-.246.1a19.66,19.66,0,0,0,0,19.366Z" transform="translate(25.105 40.87)" fill="#ff940a"/>
      <path id="Path_1131" data-name="Path 1131" d="M29.928,39.261a14.01,14.01,0,0,1,9.236,3.213l6.743-5.941a24.406,24.406,0,0,0-15.989-5.609c-9.038,0-17.3,4.594-21.353,11.891l7.725,5.413c1.945-5.319,7.432-8.933,13.637-8.967" transform="translate(26.559 34.649)" fill="#ff940a"/>
      <path id="Path_1132" data-name="Path 1132" d="M46.623,54.4V70.079H41.07V31.356H55.793a14.2,14.2,0,0,1,9.538,3.35,10.4,10.4,0,0,1,.708,15.752q-.34.332-.708.639a14.171,14.171,0,0,1-9.538,3.3Zm0-18.284V49.639h9.3a7.733,7.733,0,0,0,5.487-2,6.12,6.12,0,0,0,.2-9.282l-.057-.051c-.047-.043-.094-.094-.142-.128a7.67,7.67,0,0,0-5.487-2.054Zm35.472,6.6q6.162,0,9.718,2.949a9.924,9.924,0,0,1,3.56,8.081V70.079H90.065V66.4h-.236a10.949,10.949,0,0,1-9.18,4.543,12.741,12.741,0,0,1-8.169-2.6,7.962,7.962,0,0,1-3.287-6.487,7.594,7.594,0,0,1,3.466-6.538q3.471-2.429,9.265-2.429a18.047,18.047,0,0,1,8.141,1.62V53.364a5.432,5.432,0,0,0-2.295-4.4,8.39,8.39,0,0,0-5.355-1.807,8.815,8.815,0,0,0-7.357,3.512l-4.883-2.762q3.995-5.191,11.918-5.191ZM74.908,61.965a3.871,3.871,0,0,0,1.832,3.248,7.286,7.286,0,0,0,4.316,1.3A9.353,9.353,0,0,0,87.3,64.181a6.971,6.971,0,0,0,2.758-5.464,12.312,12.312,0,0,0-7.244-1.858,10.167,10.167,0,0,0-5.638,1.458,4.341,4.341,0,0,0-2.267,3.648Zm50.941-18.377L107.32,81.757h-5.733L108.462,68.4,96.27,43.579H102.3l8.811,19.034h.123L119.8,43.579Z" transform="translate(55.42 35.13)" fill="#ff940a"/>
    </g>
  </g>
</svg>
