<svg xmlns="http://www.w3.org/2000/svg" xmlns:xlink="http://www.w3.org/1999/xlink" width="346" height="92" viewBox="0 0 346 92">
  <defs>
    <clipPath id="clip-path">
      <rect id="Rectangle_13230" data-name="Rectangle 13230" width="346" height="92" fill="rgba(255,255,255,0.35)" stroke="#707070" stroke-width="1"/>
    </clipPath>
    <clipPath id="clip-path-2">
      <path id="Path_1119" data-name="Path 1119" d="M137.417,163.471c-.09,6.26,6.553,9.771,11.581,11.832,5.162,2.137,6.868,3.511,6.868,5.42-.045,2.939-4.13,4.2-7.945,4.275a31.914,31.914,0,0,1-13.6-2.748l-2.379,9.542c3.1,1.221,8.8,2.252,14.723,2.328,13.915,0,22.982-5.84,23.027-14.886.045-11.489-18.673-12.137-18.538-17.252.045-1.565,1.8-3.206,5.611-3.626a28.617,28.617,0,0,1,13.062,1.947l2.334-9.237a40.752,40.752,0,0,0-12.389-1.947c-13.107,0-22.308,5.916-22.353,14.351m57.1-13.588a6.041,6.041,0,0,0-5.611,3.206l-19.84,40.305h13.915l2.783-6.489h16.967l1.616,6.489H216.6l-10.683-43.511h-11.4m1.93,11.756,3.995,16.336h-11l7-16.336m-75.9-11.756-10.952,43.511h13.241l10.952-43.511H120.54m-19.57,0L87.189,179.5,81.623,154.31a5.969,5.969,0,0,0-6.1-4.427H52.986l-.314,1.26a60.4,60.4,0,0,1,13.062,3.7c1.93.916,2.514,1.679,3.142,3.817l10.548,34.733h14l21.456-43.511H100.969" transform="translate(-52.672 -149.12)" fill="#ff940a"/>
    </clipPath>
  </defs>
  <g id="Mask_Group_7" data-name="Mask Group 7" clip-path="url(#clip-path)">
    <g id="XMLID_1_" transform="translate(91.038 23.5)">
      <g id="XMLID_2_">
        <g id="Group_13" data-name="Group 13" clip-path="url(#clip-path-2)">
          <path id="Path_1118" data-name="Path 1118" d="M22.863,107.264l161.41-50.534,36.717,84.809L59.58,192.073" transform="translate(-40.01 -101.92)" fill="#ff940a"/>
        </g>
      </g>
    </g>
  </g>
</svg>
