<svg xmlns="http://www.w3.org/2000/svg" xmlns:xlink="http://www.w3.org/1999/xlink" width="2488" height="1607" viewBox="0 0 2488 1607">
  <defs>
    <radialGradient id="radial-gradient" cx="0.5" cy="0.5" r="0.653" gradientUnits="objectBoundingBox">
      <stop offset="0" stop-color="#fff"/>
      <stop offset="1" stop-color="#f7fcfc" stop-opacity="0.847"/>
    </radialGradient>
  </defs>
  <g id="Group_16" data-name="Group 16" transform="translate(-245 -7940)">
    <ellipse id="Ellipse_9" data-name="Ellipse 9" cx="161" cy="156.5" rx="161" ry="156.5" transform="translate(245 9234)" fill="url(#radial-gradient)"/>
    <ellipse id="Ellipse_16" data-name="Ellipse 16" cx="161" cy="156.5" rx="161" ry="156.5" transform="translate(245 8665)" fill="url(#radial-gradient)"/>
    <ellipse id="Ellipse_19" data-name="Ellipse 19" cx="161" cy="156.5" rx="161" ry="156.5" transform="translate(245 8096)" fill="url(#radial-gradient)"/>
    <ellipse id="Ellipse_10" data-name="Ellipse 10" cx="161" cy="156.5" rx="161" ry="156.5" transform="translate(967 9078)" fill="url(#radial-gradient)"/>
    <ellipse id="Ellipse_15" data-name="Ellipse 15" cx="161" cy="156.5" rx="161" ry="156.5" transform="translate(967 8509)" fill="url(#radial-gradient)"/>
    <ellipse id="Ellipse_18" data-name="Ellipse 18" cx="161" cy="156.5" rx="161" ry="156.5" transform="translate(967 7940)" fill="url(#radial-gradient)"/>
    <ellipse id="Ellipse_11" data-name="Ellipse 11" cx="161" cy="156.5" rx="161" ry="156.5" transform="translate(1689 9234)" fill="url(#radial-gradient)"/>
    <ellipse id="Ellipse_14" data-name="Ellipse 14" cx="161" cy="156.5" rx="161" ry="156.5" transform="translate(1689 8665)" fill="url(#radial-gradient)"/>
    <ellipse id="Ellipse_17" data-name="Ellipse 17" cx="161" cy="156.5" rx="161" ry="156.5" transform="translate(1689 8096)" fill="url(#radial-gradient)"/>
    <ellipse id="Ellipse_12" data-name="Ellipse 12" cx="161" cy="156.5" rx="161" ry="156.5" transform="translate(2411 9078)" fill="url(#radial-gradient)"/>
    <ellipse id="Ellipse_13" data-name="Ellipse 13" cx="161" cy="156.5" rx="161" ry="156.5" transform="translate(2411 8509)" fill="url(#radial-gradient)"/>
    <ellipse id="Ellipse_20" data-name="Ellipse 20" cx="161" cy="156.5" rx="161" ry="156.5" transform="translate(2411 7940)" fill="url(#radial-gradient)"/>
  </g>
</svg>
