<svg xmlns="http://www.w3.org/2000/svg" xmlns:xlink="http://www.w3.org/1999/xlink" width="130" height="91" viewBox="0 0 130 91">
  <defs>
    <clipPath id="clip-path">
      <rect id="Rectangle_13231" data-name="Rectangle 13231" width="130" height="91" fill="rgba(255,255,255,0.35)" opacity="0"/>
    </clipPath>
  </defs>
  <g id="Mask_Group_8" data-name="Mask Group 8" clip-path="url(#clip-path)">
    <g id="cdnlogo.com_mastercard" transform="translate(-0.26 -33)">
      <path id="Path_1120" data-name="Path 1120" d="M0,0H130.069V151H0Z" fill="none" fill-rule="evenodd"/>
      <path id="Path_1121" data-name="Path 1121" d="M45.481,87.681A30.44,30.44,0,0,0,67.726,97.732c18.347,0,33.2-17.372,33.2-38.739,0-21.432-14.849-38.8-33.2-38.8A30.437,30.437,0,0,0,45.481,30.239,41.938,41.938,0,0,0,34.53,58.993,41.651,41.651,0,0,0,45.481,87.681Z" transform="translate(19.582 16.54)" fill="#ff940a" fill-rule="evenodd"/>
      <path id="Path_1122" data-name="Path 1122" d="M74.08,53.911a1.068,1.068,0,1,1,2.12,0,1.077,1.077,0,1,1-2.12,0Zm1.032,1a.961.961,0,0,0,.859-1,.836.836,0,1,0-1.661,0A.962.962,0,0,0,75.112,54.911Zm-.115-.4h-.229V53.379h.4a.3.3,0,0,1,.229.067c.115.066.115.133.115.266s-.057.266-.171.266l.229.533h-.287l-.115-.467H75v-.2h.229c.057,0,.057-.067.057-.133s0-.067-.057-.133H75Z" transform="translate(42.011 43.187)" fill="#ff940a" fill-rule="evenodd"/>
      <path id="Path_1123" data-name="Path 1123" d="M72.323,54.867c-.115-1.4-.344-2.728-.574-4.127h-20.3c.229-1.4.574-2.728.917-4.06h18.4q-.6-2.1-1.376-4.127H53.8q.86-2.115,1.892-4.127H67.451a35.387,35.387,0,0,0-2.522-4.06H58.22A36.522,36.522,0,0,1,61.6,30.239C55.7,24.049,47.9,20.189,39.3,20.189c-18.289,0-33.2,17.373-33.2,38.8C6.1,80.36,21.01,97.732,39.3,97.732A30.566,30.566,0,0,0,61.6,87.681a35.21,35.21,0,0,0,3.326-4.061H58.22A46.518,46.518,0,0,1,55.7,79.493H67.451A32.762,32.762,0,0,0,69.4,75.366H53.8c-.516-1.331-1.032-2.662-1.434-4.061h18.4c.4-1.331.688-2.728.974-4.127.229-1.331.459-2.728.574-4.127q.174-2.024.173-4.061c0-1.4-.057-2.793-.172-4.124Z" transform="translate(3.461 16.54)" fill="#ff940a" fill-rule="evenodd"/>
      <path id="Path_1124" data-name="Path 1124" d="M74.08,47.026a1.077,1.077,0,1,1,2.12,0,1.077,1.077,0,1,1-2.12,0Zm1.032.931a.942.942,0,1,0-.8-.931A.9.9,0,0,0,75.112,47.958Zm-.115-.4h-.229V46.494h.63c.115.067.115.2.115.334a.361.361,0,0,1-.171.266l.229.465h-.287l-.115-.4H75v-.2h.115c.057,0,.115,0,.115-.067.057,0,.057-.066.057-.133,0,0,0-.066-.057-.066,0-.067-.058,0-.115,0H75Z" transform="translate(42.011 37.493)" fill="#ff940a" fill-rule="evenodd"/>
      <path id="Path_1125" data-name="Path 1125" d="M49.54,56.628a9.274,9.274,0,0,1-2.694.533c-1.72,0-2.752-1.265-2.752-3.528a13.838,13.838,0,0,1,.115-1.464l.229-1.53.172-1.265,1.548-10.916H49.6l-.4,2.4h2.179l-.516,3.994H48.679l-.917,6.522a3.54,3.54,0,0,0-.057.666c0,.866.344,1.2,1.2,1.2A5.443,5.443,0,0,0,50,53.1l-.458,3.528Zm11.123-.133a11.754,11.754,0,0,1-3.669.6c-3.9,0-6.135-2.4-6.135-7.121,0-5.525,2.638-9.519,6.307-9.519,2.924,0,4.816,2.263,4.816,5.79a21.183,21.183,0,0,1-.4,3.928H54.413a2.162,2.162,0,0,0-.057.533c0,1.864,1.089,2.8,3.153,2.8a7.669,7.669,0,0,0,3.727-1Zm-2.122-9.518v-.8c0-1.331-.631-2.063-1.72-2.063-1.147,0-1.949,1-2.294,2.862h4.014Zm-36.522,9.85H18.464l2.064-15.108L15.885,56.826H13.42l-.287-15.042L10.954,56.826h-3.5l2.809-19.634h5.217L15.6,49.307l3.5-12.115h5.734l-2.81,19.634Zm8.658-7.121a2.815,2.815,0,0,0-.688-.067c-2.064,0-3.1.931-3.1,2.4,0,1,.516,1.665,1.319,1.665,1.72,0,2.408-1.665,2.466-3.994Zm2.866,7.121h-3.1l.057-1.663a4,4,0,0,1-3.784,1.929c-1.72,0-3.211-1.8-3.211-4.392a8.085,8.085,0,0,1,.287-2.063c.573-2.464,2.694-3.994,5.962-4.061a14.236,14.236,0,0,1,1.605.067,4.084,4.084,0,0,0,.114-1.065c0-1.065-.745-1.4-2.408-1.4a8.36,8.36,0,0,0-2.981.533l-.516.133-.229.066.516-3.594a11.792,11.792,0,0,1,4.186-.865c3.1,0,4.759,1.664,4.759,4.725a17.5,17.5,0,0,1-.172,3.129l-.8,5.724-.115,1-.057.8-.057.533ZM77.978,40.986a6.187,6.187,0,0,1,3.211,1.065l.63-4.26a7.287,7.287,0,0,0-.917-.4l-1.433-.466a6.121,6.121,0,0,0-1.663-.2c-1.778,0-2.81.067-3.9.8a11.4,11.4,0,0,0-2.122,2.13l-.459-.133-3.67,2.995.173-1.664H64.045L61.81,56.826h3.613l1.318-8.585s.517-1.2.746-1.6a1.967,1.967,0,0,1,2.006-1h.287a24.892,24.892,0,0,0-.173,3.061c0,5.191,2.522,8.453,6.421,8.453a10.1,10.1,0,0,0,3.154-.533l.632-4.526a5.833,5.833,0,0,1-3.039,1.065c-2.121,0-3.383-1.864-3.383-4.792,0-4.327,1.891-7.388,4.587-7.388Zm30.443-3.794-.8,5.591c-.86-1.531-1.893-2.263-3.269-2.263-1.893,0-3.669,1.264-4.759,3.661v-.066l-2.293-1.6.229-1.664H93.686L91.507,56.827h3.555l1.2-8.585s.917-1.2,1.146-1.6a2.155,2.155,0,0,1,1.605-1,16.527,16.527,0,0,0-.63,4.726c0,3.994,1.777,6.656,4.414,6.656a3.958,3.958,0,0,0,3.325-1.8l-.171,1.6h3.383l2.752-19.634h-3.67Zm-4.414,15.841c-1.2,0-1.835-1.065-1.835-3.129,0-3.129,1.146-5.391,2.808-5.391,1.261,0,1.893,1.132,1.893,3.129C106.874,50.837,105.727,53.033,104.007,53.033ZM87.438,49.706a2.815,2.815,0,0,0-.688-.067c-2.066,0-3.1.931-3.1,2.4,0,1,.517,1.665,1.319,1.665C86.692,53.7,87.38,52.035,87.438,49.706ZM90.3,56.827H87.151l.115-1.663a4,4,0,0,1-3.784,1.929c-1.778,0-3.325-1.73-3.325-4.392,0-3.793,2.464-6.123,6.363-6.123a12.823,12.823,0,0,1,1.549.067,4.693,4.693,0,0,0,.173-1.065c0-1.065-.746-1.4-2.466-1.4a8.6,8.6,0,0,0-2.981.533l-.459.133-.229.066.516-3.594a11.8,11.8,0,0,1,4.186-.865c3.1,0,4.7,1.664,4.7,4.725a13.278,13.278,0,0,1-.171,3.129l-.746,5.724-.115,1-.115.8-.057.533v.464h0ZM41.054,44.247a14.705,14.705,0,0,1,2.7.266l.516-3.727a31.853,31.853,0,0,0-3.211-.333c-4.013,0-5.331,2.53-5.331,5.458A4.576,4.576,0,0,0,38.417,50.3c1.433.8,1.663.931,1.663,1.665,0,1-.745,1.6-2.122,1.6A8.415,8.415,0,0,1,34.69,52.9l-.4,3.66.057.067.688.133a7.923,7.923,0,0,0,.918.2c.86.067,1.605.133,2.064.133,4.014,0,5.676-1.8,5.676-5.325A4.565,4.565,0,0,0,41,47.309c-1.548-.8-1.72-.931-1.72-1.665s.688-1.4,1.777-1.4Z" transform="translate(4.229 30.088)" fill="#bf6cc7" fill-rule="evenodd"/>
      <path id="Path_1126" data-name="Path 1126" d="M82.4,37.065l-.632,4.26a6.18,6.18,0,0,0-3.211-1.065c-2.7,0-4.587,3.061-4.587,7.388,0,3,1.261,4.792,3.383,4.792a6.309,6.309,0,0,0,3.038-1l-.63,4.458a10.435,10.435,0,0,1-3.154.6c-3.9,0-6.307-3.262-6.307-8.519,0-6.989,3.325-11.915,8.084-11.915a6.118,6.118,0,0,1,1.662.2l1.434.4C81.941,36.866,82.055,36.933,82.4,37.065ZM70.817,39.994h-.344c-1.2,0-1.891.666-2.981,2.6l.344-2.463H64.568L62.333,56.1h3.613c1.318-9.784,1.662-11.448,3.382-11.448h.229a18.58,18.58,0,0,1,1.376-4.593ZM50.063,55.9a6.523,6.523,0,0,1-2.58.533c-1.835,0-2.867-1.2-2.867-3.527a12.693,12.693,0,0,1,.115-1.4l.229-1.6.172-1.264L46.68,37.731h3.555l-.4,2.4h1.835l-.459,3.927H49.375L48.4,50.711a2.89,2.89,0,0,0-.057.666c0,.8.344,1.132,1.2,1.132a2.078,2.078,0,0,0,.974-.133L50.063,55.9ZM36.245,45.186a4.7,4.7,0,0,0,2.694,4.46c1.491.8,1.72,1.065,1.72,1.73,0,1-.631,1.464-2.064,1.464a9.365,9.365,0,0,1-3.211-.6l-.516,3.66.172.067.631.133a3.275,3.275,0,0,0,.974.133,11.437,11.437,0,0,0,1.949.133c3.784,0,5.562-1.665,5.562-5.325a4.492,4.492,0,0,0-2.522-4.46c-1.548-.8-1.72-1-1.72-1.73,0-.865.631-1.264,1.777-1.264a19.333,19.333,0,0,1,2.58.2l.516-3.661a17.97,17.97,0,0,0-3.153-.333c-4.014,0-5.447,2.462-5.39,5.39ZM109.863,56.1h-3.383l.173-1.532a4.058,4.058,0,0,1-3.327,1.73c-2.637,0-4.357-2.595-4.357-6.588,0-5.325,2.7-9.852,5.848-9.852,1.434,0,2.466.732,3.441,2.2l.8-5.591h3.555L109.863,56.1Zm-5.275-3.727c1.663,0,2.81-2.263,2.81-5.392,0-2.063-.632-3.129-1.893-3.129-1.605,0-2.808,2.2-2.808,5.325q0,3.2,1.891,3.2ZM61.071,55.768a10.262,10.262,0,0,1-3.727.666c-4.014,0-6.078-2.462-6.078-7.188,0-5.458,2.638-9.518,6.25-9.518,2.981,0,4.873,2.263,4.873,5.791a18.539,18.539,0,0,1-.459,3.994H54.822a1.5,1.5,0,0,0-.057.467c0,1.864,1.09,2.8,3.153,2.8a7,7,0,0,0,3.727-1ZM59.064,46.25v-.8c0-1.331-.631-2.063-1.72-2.063-1.146,0-1.949,1-2.294,2.862h4.014ZM22.543,56.1H18.988l2.064-15.11L16.408,56.1H13.942l-.287-14.977L11.477,56.1H8.152l2.809-19.635h5.16l.172,12.181,3.439-12.181h5.619L22.543,56.1Zm8.887-7.122c-.344,0-.516-.066-.8-.066-2.007,0-3.039.865-3.039,2.462,0,1,.459,1.6,1.261,1.6,1.491,0,2.523-1.6,2.58-3.994ZM34.067,56.1H31.085l.057-1.665a4.233,4.233,0,0,1-3.784,1.931c-1.949,0-3.268-1.73-3.268-4.327,0-3.926,2.293-6.189,6.307-6.189a14.71,14.71,0,0,1,1.491.132,3.867,3.867,0,0,0,.115-1c0-1.065-.631-1.464-2.294-1.464a10.273,10.273,0,0,0-2.981.4l-.516.2-.344.067.516-3.594a12.6,12.6,0,0,1,4.3-.8c3.1,0,4.759,1.6,4.759,4.659a23.274,23.274,0,0,1-.287,3.2l-.8,5.658-.115,1-.057.8-.057.6-.056.4ZM88.191,48.98c-.4,0-.574-.066-.8-.066-2.064,0-3.1.865-3.1,2.462,0,1,.517,1.6,1.319,1.6,1.434,0,2.522-1.6,2.58-3.994ZM90.828,56.1H87.846l.057-1.665a4.231,4.231,0,0,1-3.784,1.931c-1.949,0-3.269-1.73-3.269-4.327,0-3.926,2.293-6.189,6.307-6.189a12.507,12.507,0,0,1,1.434.132,4.843,4.843,0,0,0,.173-1c0-1.065-.632-1.464-2.293-1.464a10.682,10.682,0,0,0-3.039.4l-.459.2-.344.067.516-3.594a12.6,12.6,0,0,1,4.3-.8c3.1,0,4.7,1.6,4.7,4.659a16.554,16.554,0,0,1-.286,3.2l-.746,5.658L91,54.3l-.115.8-.057.6v.4h0Zm9.632-16.108h-.344c-1.2,0-1.891.666-2.981,2.6l.344-2.463H94.21L92.031,56.1h3.555c1.319-9.784,1.663-11.448,3.383-11.448H99.2a18.58,18.58,0,0,1,1.376-4.593Z" transform="translate(4.623 29.549)" fill="#fff" fill-rule="evenodd"/>
    </g>
  </g>
</svg>
