<svg xmlns="http://www.w3.org/2000/svg" xmlns:xlink="http://www.w3.org/1999/xlink" width="100" height="100" viewBox="0 0 100 100">
  <defs>
    <linearGradient id="linear-gradient" x1="0.184" y1="0.624" x2="0.83" y2="0.319" gradientUnits="objectBoundingBox">
      <stop offset="0" stop-color="#ff6402"/>
      <stop offset="1" stop-color="#ffcf4b"/>
    </linearGradient>
  </defs>
  <g id="Phone_Group" data-name="Phone Group" transform="translate(-1054 -2185)">
    <g id="Ellipse_8" data-name="Ellipse 8" transform="translate(1054 2185)" stroke="#f7f7f7" stroke-width="1" fill="url(#linear-gradient)">
      <circle cx="50" cy="50" r="50" stroke="none"/>
      <circle cx="50" cy="50" r="49.5" fill="none"/>
    </g>
    <path id="ic_monetization_on_24px" d="M18.5,2A16.624,16.624,0,1,0,35,18.623,16.568,16.568,0,0,0,18.5,2Zm2.327,26.746v3.175H16.422V28.713c-2.822-.6-5.214-2.427-5.4-5.652H14.26c.165,1.745,1.353,3.109,4.373,3.109,3.234,0,3.96-1.629,3.96-2.643,0-1.38-.726-2.676-4.406-3.557-4.092-1-6.9-2.693-6.9-6.1,0-2.859,2.294-4.721,5.132-5.336V5.325h4.406V8.566a5.866,5.866,0,0,1,4.7,5.635H22.3c-.083-1.845-1.056-3.109-3.663-3.109-2.475,0-3.96,1.13-3.96,2.726,0,1.4,1.073,2.311,4.406,3.175s6.9,2.311,6.9,6.5c-.017,3.042-2.277,4.7-5.148,5.253Z" transform="translate(1085.499 2216.377)" fill="#fcfcfb"/>
  </g>
</svg>
