<svg xmlns="http://www.w3.org/2000/svg" xmlns:xlink="http://www.w3.org/1999/xlink" width="269" height="83" viewBox="0 0 269 83">
  <defs>
    <clipPath id="clip-path">
      <rect id="Rectangle_13228" data-name="Rectangle 13228" width="269" height="83" fill="rgba(255,255,255,0.35)" stroke="#707070" stroke-width="1"/>
    </clipPath>
  </defs>
  <g id="Mask_Group_2" data-name="Mask Group 2" clip-path="url(#clip-path)">
    <g id="cdnlogo.com_payoneer" transform="translate(22.088)">
      <path id="Path_1066" data-name="Path 1066" d="M1.46,2.173c.277,6.617,5.7,31.867,5.7,31.867,1.994,5.114,3.711,0,3.711,0C17.437,13.3,4.023,1.275,4.023,1.275c-3.425-2.109-2.563.9-2.563.9M79.344-1.432s6.567,4.81,0,5.711c0,0-24.537,3.005-42.8,21.048,0,0-27.393,25.245-37.661,52.906,0,0-3.425,0-2.279-5.41S4.594,43.661,35.118,14.5c0,0,29.4-28.262,44.226-15.936" transform="translate(55.828 4.545)" fill="#ff940a"/>
      <path id="Path_1067" data-name="Path 1067" d="M2.969,6.389a14.867,14.867,0,0,0,3.486.359c5.6,0,9.368-3.793,9.368-8.61,0-4.334-2.913-5.9-6.68-5.9A14.21,14.21,0,0,0,5.426-7.4ZM-.173-12.4a40.315,40.315,0,0,1,9.257-.964c3.6,0,7.372.78,9.885,2.89A9.833,9.833,0,0,1,22.511-2.4,14.319,14.319,0,0,1,17.6,8.616C14.512,11.2,10.108,12.47,5.538,12.47a29.558,29.558,0,0,1-3.6-.3l-2.8,15.355H-7.372Z" transform="translate(7.372 36.747)" fill="#ff940a"/>
      <path id="Path_1068" data-name="Path 1068" d="M5.907,1.85a10.465,10.465,0,0,0-2.74-.3c-6.114,0-10.914,7.289-10.914,13.972,0,3.066,1.085,5.6,4,5.6,3.14,0,6.914-4.092,8.228-11.561ZM3.223,26.119c0-1.75.227-4.095.459-6.568H3.566c-2.742,5.363-6.458,7.228-10,7.228-4.97,0-8.23-4.095-8.23-9.993,0-10,6.629-20.655,19.6-20.655a28.914,28.914,0,0,1,8.458,1.324L10.48,12.75A71.222,71.222,0,0,0,9.337,26.119Z" transform="translate(41.628 38.15)" fill="#ff940a"/>
      <path id="Path_1069" data-name="Path 1069" d="M1.968,5.941c0,4.029,2,6.867,5.428,6.867,4.971,0,8.287-7.229,8.287-13.069,0-3.013-1.317-6.746-5.314-6.746-5.315,0-8.4,7.468-8.4,12.948M22.539-.319c0,9.992-6.573,18.541-16.056,18.541-7.032,0-11.37-5.117-11.37-12.1,0-9.932,6.57-18.543,16.056-18.543,7.484,0,11.37,5.66,11.37,12.106" transform="translate(90.871 46.707)" fill="#ff940a"/>
      <path id="Path_1070" data-name="Path 1070" d="M0,9.7,3.6-10.533c.685-3.493,1.084-6.564,1.428-9.091h5.946l-.63,5.239h.112c2.569-3.916,6.114-5.9,10-5.9,4,0,7.085,2.532,7.085,8.07A28.691,28.691,0,0,1,27.031-7.4L24,9.7H17.312L20.28-6.859a22.523,22.523,0,0,0,.347-3.493c0-2.469-.857-4.216-3.485-4.216-3.028,0-6.915,3.853-8.114,10.721L6.629,9.7Z" transform="translate(114.662 54.57)" fill="#ff940a"/>
      <path id="Path_1071" data-name="Path 1071" d="M4.281,1.694c-4.174,0-6.914,3.913-7.713,7.469,6.855.059,11.258-.9,11.258-4.455,0-1.867-1.429-3.013-3.545-3.013m6.343,23.062A21.446,21.446,0,0,1,.795,27.1c-7.707,0-11.424-4.995-11.424-12.162,0-8.852,6.167-18.485,15.768-18.485,5.484,0,8.971,3.31,8.971,8.25,0,7.524-7.483,9.931-18.225,9.692a8.437,8.437,0,0,0,.742,4.154c1.087,1.989,3.08,3.012,5.713,3.012A15.813,15.813,0,0,0,10,19.638Z" transform="translate(155.631 37.826)" fill="#ff940a"/>
      <path id="Path_1072" data-name="Path 1072" d="M4.281,1.694c-4.169,0-6.914,3.913-7.713,7.469,6.855.059,11.258-.9,11.258-4.455,0-1.867-1.429-3.013-3.545-3.013m6.343,23.062A21.426,21.426,0,0,1,.8,27.1c-7.713,0-11.43-4.995-11.43-12.162,0-8.852,6.167-18.485,15.768-18.485,5.484,0,8.977,3.31,8.977,8.25,0,7.524-7.489,9.931-18.231,9.692a8.419,8.419,0,0,0,.742,4.154c1.087,1.989,3.085,3.012,5.713,3.012A15.813,15.813,0,0,0,10,19.638Z" transform="translate(181.511 37.826)" fill="#ff940a"/>
      <path id="Path_1073" data-name="Path 1073" d="M0,9.7,3.256-8.365C4-12.519,4.4-17.035,4.679-19.624h5.774c-.171,1.986-.341,4.033-.628,6.143h.169c1.894-3.916,4.916-6.807,8.689-6.807.518,0,1.029.062,1.488.062l-1.317,6.864a7.788,7.788,0,0,0-1.258-.062c-4.746,0-7.772,5.058-8.854,11.319L6.626,9.7Z" transform="translate(196.021 54.569)" fill="#ff940a"/>
      <path id="Path_1074" data-name="Path 1074" d="M.137.6H.624a.742.742,0,0,0,.829-.737c0-.5-.346-.718-.846-.718A2.28,2.28,0,0,0,.137-.82ZM-.34-1.171a5.233,5.233,0,0,1,.912-.08,1.482,1.482,0,0,1,1.064.319,1,1,0,0,1,.289.744,1,1,0,0,1-.689.981V.812a.98.98,0,0,1,.54.783A6.39,6.39,0,0,0,2.06,2.661H1.566a5.013,5.013,0,0,1-.236-.929C1.218,1.2,1.013,1,.584.979H.137V2.661H-.34Z" transform="translate(221.111 37.03)" fill="#ff940a"/>
      <path id="Path_1075" data-name="Path 1075" d="M.945,0A3.387,3.387,0,0,0-2.347,3.469,3.388,3.388,0,0,0,.945,6.941,3.388,3.388,0,0,0,4.238,3.469,3.387,3.387,0,0,0,.945,0m0,.536A2.858,2.858,0,0,1,3.726,3.469,2.863,2.863,0,0,1,.945,6.406,2.864,2.864,0,0,1-1.842,3.469,2.86,2.86,0,0,1,.945.536" transform="translate(220.919 34.283)" fill="#ff940a"/>
    </g>
  </g>
</svg>
