<svg xmlns="http://www.w3.org/2000/svg" xmlns:xlink="http://www.w3.org/1999/xlink" width="346" height="92" viewBox="0 0 346 92">
  <defs>
    <clipPath id="clip-path">
      <rect id="Rectangle_13227" data-name="Rectangle 13227" width="346" height="92" fill="rgba(255,255,255,0.35)" stroke="#707070" stroke-width="1"/>
    </clipPath>
  </defs>
  <g id="Mask_Group_1" data-name="Mask Group 1" clip-path="url(#clip-path)">
    <g id="cdnlogo.com_paypal" transform="translate(79.665 21.171)">
      <path id="Path_1076" data-name="Path 1076" d="M54.674,6.749H42.349a1.672,1.672,0,0,0-1.692,1.315L35.672,36.821a.877.877,0,0,0,.235.753,1.072,1.072,0,0,0,.781.326h5.884a1.671,1.671,0,0,0,1.692-1.317l1.344-7.756A1.671,1.671,0,0,1,47.3,27.51h3.9c8.118,0,12.8-3.575,14.027-10.659.551-3.1.023-5.534-1.571-7.24C61.905,7.739,58.8,6.749,54.674,6.749Zm1.422,10.5c-.674,4.024-4.053,4.024-7.32,4.024h-1.86l1.3-7.515a1,1,0,0,1,1.015-.789h.852c2.226,0,4.325,0,5.41,1.154a3.47,3.47,0,0,1,.6,3.125Zm35.418-.13h-5.9a1,1,0,0,0-1.015.789l-.261,1.5-.413-.544c-1.278-1.687-4.127-2.251-6.97-2.251a13.185,13.185,0,0,0-13.177,10.8,9.468,9.468,0,0,0,2.2,8.25c1.8,1.928,4.372,2.732,7.434,2.732a11.761,11.761,0,0,0,8.169-3.075l-.263,1.492a.877.877,0,0,0,.232.754,1.072,1.072,0,0,0,.781.329h5.316a1.671,1.671,0,0,0,1.692-1.317l3.19-18.38a.874.874,0,0,0-.232-.752,1.068,1.068,0,0,0-.779-.327ZM83.287,27.574A6.428,6.428,0,0,1,76.628,32.7a5.233,5.233,0,0,1-3.963-1.448,4.257,4.257,0,0,1-.926-3.773,6.446,6.446,0,0,1,6.614-5.169,5.23,5.23,0,0,1,3.936,1.463,4.34,4.34,0,0,1,1,3.8Zm39.658-10.452h-5.931a1.772,1.772,0,0,0-1.418.684l-8.18,10.964L103.95,18.234a1.705,1.705,0,0,0-1.644-1.112H96.478a1.062,1.062,0,0,0-.837.39.865.865,0,0,0-.138.847L102.036,35.8l-6.141,7.889a.865.865,0,0,0-.075.97,1.044,1.044,0,0,0,.913.506h5.923a1.765,1.765,0,0,0,1.407-.669L123.789,18.59a.864.864,0,0,0,.066-.966,1.044,1.044,0,0,0-.91-.5Z" transform="translate(30.471 -2.2)" fill="#ff940a"/>
      <path id="Path_1077" data-name="Path 1077" d="M103.455,6.75H91.129a1.671,1.671,0,0,0-1.69,1.315L84.454,36.822a.875.875,0,0,0,.233.752,1.07,1.07,0,0,0,.78.327h6.325a1.17,1.17,0,0,0,1.182-.922l1.415-8.151a1.671,1.671,0,0,1,1.69-1.317h3.9c8.12,0,12.8-3.575,14.029-10.659.553-3.1.022-5.534-1.573-7.24-1.75-1.873-4.855-2.863-8.98-2.863Zm1.422,10.5c-.672,4.024-4.051,4.024-7.32,4.024H95.7l1.307-7.515a1,1,0,0,1,1.013-.789h.852c2.224,0,4.325,0,5.41,1.154a3.47,3.47,0,0,1,.6,3.125Zm35.416-.13h-5.9a1,1,0,0,0-1.013.789l-.261,1.5-.414-.544c-1.278-1.687-4.125-2.251-6.969-2.251a13.183,13.183,0,0,0-13.175,10.8,9.472,9.472,0,0,0,2.2,8.25c1.8,1.928,4.372,2.732,7.434,2.732a11.761,11.761,0,0,0,8.169-3.075l-.263,1.492a.877.877,0,0,0,.233.755,1.072,1.072,0,0,0,.783.327h5.314a1.671,1.671,0,0,0,1.69-1.317l3.191-18.38a.879.879,0,0,0-.236-.753,1.074,1.074,0,0,0-.782-.326Zm-8.227,10.452a6.425,6.425,0,0,1-6.659,5.128,5.238,5.238,0,0,1-3.963-1.448,4.267,4.267,0,0,1-.926-3.773,6.449,6.449,0,0,1,6.614-5.169,5.23,5.23,0,0,1,3.936,1.463A4.319,4.319,0,0,1,132.066,27.575ZM147.251,7.538l-5.058,29.283a.875.875,0,0,0,.233.752,1.07,1.07,0,0,0,.78.327h5.085a1.669,1.669,0,0,0,1.692-1.317l4.988-28.755a.877.877,0,0,0-.233-.752,1.072,1.072,0,0,0-.78-.328h-5.695a1,1,0,0,0-1.013.79Z" transform="translate(71.637 -2.201)" fill="#ff940a"/>
      <path id="Path_1078" data-name="Path 1078" d="M12.243,40.633l.942-4.678-2.1-.038H1.061L8.028,1.4a.546.546,0,0,1,.566-.377H25.5c5.612,0,9.484.912,11.506,2.713a5.9,5.9,0,0,1,1.844,2.7,7.66,7.66,0,0,1,.013,3.723l-.022.108v.952l.948.42a6.738,6.738,0,0,1,1.919,1.143,4.876,4.876,0,0,1,1.557,2.729,9.075,9.075,0,0,1-.222,3.959,12.179,12.179,0,0,1-2.076,4.482,10.543,10.543,0,0,1-3.289,2.816,15.361,15.361,0,0,1-4.43,1.562,28,28,0,0,1-5.536.5H26.395a4.7,4.7,0,0,0-2.572.739,3.025,3.025,0,0,0-1.341,1.87l-.1.421L20.718,40.1l-.076.3a.245.245,0,0,1-.1.176.33.33,0,0,1-.173.049Z" transform="translate(0.851 0.655)" fill="#ff940a"/>
      <path id="Path_1079" data-name="Path 1079" d="M36.571,7.667q-.076.44-.173.9c-2.229,10.414-9.856,14.012-19.6,14.012H11.843a2.351,2.351,0,0,0-2.381,1.856L6.923,39.09,6.2,43.244a1.083,1.083,0,0,0,.288.93,1.324,1.324,0,0,0,.964.4h8.8a2.067,2.067,0,0,0,2.09-1.623l.087-.407,1.656-9.563.106-.525a2.065,2.065,0,0,1,2.09-1.627H23.6c8.522,0,15.193-3.148,17.143-12.259.815-3.806.393-6.984-1.762-9.219a8.364,8.364,0,0,0-2.408-1.689Z" transform="translate(4.963 -1.613)" fill="#ff940a"/>
      <path id="Path_1080" data-name="Path 1080" d="M32.782,7.435A19.086,19.086,0,0,0,30.614,7a30.219,30.219,0,0,0-4.372-.29H12.993A2.062,2.062,0,0,0,10.9,8.334L8.086,24.578l-.081.474A2.35,2.35,0,0,1,10.386,23.2h4.959c9.74,0,17.367-3.6,19.6-14.012.067-.308.123-.608.173-.9a12.55,12.55,0,0,0-1.833-.7q-.248-.075-.5-.143Z" transform="translate(6.42 1.989)" fill="#ff940a"/>
      <path id="Path_1081" data-name="Path 1081" d="M17.325,10.754A2.017,2.017,0,0,1,19.414,9.37H32.663a35.4,35.4,0,0,1,4.372.247,21.945,21.945,0,0,1,2.669.493,14.163,14.163,0,0,1,1.833.6c.663-3.278-.005-5.511-2.292-7.532C36.723.953,32.172,0,26.35,0H9.446A2.313,2.313,0,0,0,7.059,1.583L.018,36.175a.958.958,0,0,0,.33.907,1.654,1.654,0,0,0,1.1.4H11.886l2.62-12.886Z" transform="translate(0 0)" fill="#ff940a"/>
    </g>
  </g>
</svg>
